{"title":"Spider-Man Homecoming 2017 Movies HD Cam XviD Clean Audio V2 New","magnet":"magnet:?xt=urn:btih:980f5ec42e4aeb8d9e5ef418e52c46827df243d7&dn=Spider-Man+Homecoming+2017+Movies+HD+Cam+XviD+Clean+Audio+V2+New&tr=udp%3A%2F%2Ftracker.leechers-paradise.org%3A6969&tr=udp%3A%2F%2Fzer0day.ch%3A1337&tr=udp%3A%2F%2Fopen.demonii.com%3A1337&tr=udp%3A%2F%2Ftracker.coppersurfer.tk%3A6969&tr=udp%3A%2F%2Fexodus.desync.com%3A6969","uploader":"basicssom","categoryP":"video","categoryS":"movies","size":"739836093","seeders":"3","leechers":"59","description":"----------------------------------------------------------------\r\nSpider-Man Homecoming 2017 Movies HD Cam XviD Clean Audio V2 AAC New Source with Sample &#x263B;rDX&#x263B;\r\n\r\nSCREEN SHOTS &amp; POSTER:\r\n   <a href=\"\nhttp://postimage.co.nr/2017/7/europe/index.html\" rel=\"nofollow\" target=\"_NEW\">\nhttp://postimage.co.nr/2017/7/europe/index.html</a>  <a href=\"\nhttp://postimage.co.nr/2017/7/europe/1.html\" rel=\"nofollow\" target=\"_NEW\">\nhttp://postimage.co.nr/2017/7/europe/1.html</a>   <a href=\"\nhttp://postimage.co.nr/2017/7/europe/2.html\" rel=\"nofollow\" target=\"_NEW\">\nhttp://postimage.co.nr/2017/7/europe/2.html</a>   <a href=\"\nhttp://postimage.co.nr/2017/7/europe/3.html\" rel=\"nofollow\" target=\"_NEW\">\nhttp://postimage.co.nr/2017/7/europe/3.html</a>   <a href=\"\nhttp://postimage.co.nr/2017/7/europe/4.html\" rel=\"nofollow\" target=\"_NEW\">\nhttp://postimage.co.nr/2017/7/europe/4.html</a>   <a href=\"\nhttp://postimage.co.nr/2017/7/europe/5.html\" rel=\"nofollow\" target=\"_NEW\">\nhttp://postimage.co.nr/2017/7/europe/5.html</a>   <a href=\"\nhttp://postimage.co.nr/2017/7/europe/6.html\" rel=\"nofollow\" target=\"_NEW\">\nhttp://postimage.co.nr/2017/7/europe/6.html</a>   <a href=\"\nhttp://postimage.co.nr/2017/7/europe/7.html\" rel=\"nofollow\" target=\"_NEW\">\nhttp://postimage.co.nr/2017/7/europe/7.html</a>   <a href=\"\nhttp://postimage.co.nr/2017/7/europe/8.html\" rel=\"nofollow\" target=\"_NEW\">\nhttp://postimage.co.nr/2017/7/europe/8.html</a>   <a href=\"\nhttp://postimage.co.nr/2017/7/europe/9.html\" rel=\"nofollow\" target=\"_NEW\">\nhttp://postimage.co.nr/2017/7/europe/9.html</a>   <a href=\"\nhttp://postimage.co.nr/2017/7/europe/10.html\" rel=\"nofollow\" target=\"_NEW\">\nhttp://postimage.co.nr/2017/7/europe/10.html</a>\r\n\r\nFile size                                : 698 MiB\r\nDuration                                 : 1 h 55 min\r\nOverall bit rate                         : 844 kb/s\r\nMovie name                               : Spider-Man Homecoming 2017 Movies HD Cam XviD Clean Audio V2 AAC New Source &#x263B;rDX&#x263B;\r\n\r\nVideo\r\nID                                       : 1\r\nFormat                                   : AVC\r\nFormat/Info                              : Advanced Video Codec\r\nFormat profile                           : <a class=\"__cf_email__\" href=\"/cdn-cgi/l/email-protection\" data-cfemail=\"2f624e46416f631b\">[email&#xA0;protected]</a><script data-cfhash=\"f9e31\" type=\"text/javascript\">/* <![CDATA[ */!function(t,e,r,n,c,a,p){try{t=document.currentScript||function(){for(t=document.getElementsByTagName('script'),e=t.length;e--;)if(t[e].getAttribute('data-cfhash'))return t[e]}();if(t&&(c=t.previousSibling)){p=t.parentNode;if(a=c.getAttribute('data-cfemail')){for(e='',r='0x'+a.substr(0,2)|0,n=2;a.length-n;n+=2)e+='%'+('0'+('0x'+a.substr(n,2)^r).toString(16)).slice(-2);p.replaceChild(document.createTextNode(decodeURIComponent(e)),c)}p.removeChild(t)}}catch(u){}}()/* ]]> */</script>\r\nFormat settings, CABAC                   : Yes\r\nFormat settings, ReFrames                : 4 frames\r\nCodec ID                                 : V_MPEG4/ISO/AVC\r\nDuration                                 : 1 h 55 min\r\nBit rate                                 : 699 kb/s\r\nWidth                                    : 714 pixels\r\nHeight                                   : 288 pixels\r\nDisplay aspect ratio                     : 2.479\r\nFrame rate mode                          : Constant\r\nFrame rate                               : 23.810 FPS\r\nColor space                              : YUV\r\nChroma subsampling                       : 4:2:0\r\nBit depth                                : 8 bits\r\nScan type                                : Progressive\r\nBits/(Pixel*Frame)                       : 0.143\r\nStream size                              : 578 MiB (83%)\r\nTitle                                    : &#x263B;rDX&#x263B;\r\nWriting library                          : XviD\r\n\r\nAudio\r\nID                                       : 2\r\nFormat                                   : MPEG Audio\r\nFormat version                           : Version 1\r\nFormat profile                           : Layer 3\r\nMode                                     : Joint stereo\r\nMode extension                           : MS Stereo\r\nCodec ID                                 : A_MPEG/L3\r\nCodec ID/Hint                            : MP3\r\nDuration                                 : 1 h 55 min\r\nBit rate mode                            : Constant\r\nBit rate                                 : 128 kb/s\r\nChannel(s)                               : 2 channels\r\nSampling rate                            : 48.0 kHz\r\nCompression mode                         : Lossy\r\nStream size                              : 106 MiB (15%)\r\nTitle                                    : &#x263B;rDX&#x263B;\r\nDefault                                  : Yes\r\nForced                                   : No","last_updated":"2017-07-09T12:00:56.893Z","parsed":{"xt":"urn:btih:980f5ec42e4aeb8d9e5ef418e52c46827df243d7","dn":"Spider-Man Homecoming 2017 Movies HD Cam XviD Clean Audio V2 New","tr":["udp://exodus.desync.com:6969","udp://open.demonii.com:1337","udp://tracker.coppersurfer.tk:6969","udp://tracker.leechers-paradise.org:6969","udp://zer0day.ch:1337"],"infoHash":"980f5ec42e4aeb8d9e5ef418e52c46827df243d7","infoHashBuffer":{"type":"Buffer","data":[152,15,94,196,46,74,235,141,158,94,244,24,229,44,70,130,125,242,67,215]},"name":"Spider-Man Homecoming 2017 Movies HD Cam XviD Clean Audio V2 New","announce":["udp://exodus.desync.com:6969","udp://open.demonii.com:1337","udp://tracker.coppersurfer.tk:6969","udp://tracker.leechers-paradise.org:6969","udp://zer0day.ch:1337"],"urlList":[]}}